<svg version="1.1" id="Capa_1" xmlns="http://www.w3.org/2000/svg" xmlns:xlink="http://www.w3.org/1999/xlink" x="0px" y="0px" viewBox="0 0 511.913 511.913" style="enable-background:new 0 0 511.913 511.913;" xml:space="preserve">
<g>
	<g>
		
			<rect x="27.426" y="12.427" transform="matrix(0.7071 -0.7071 0.7071 0.7071 -17.5733 42.4257)" style="fill-rule:evenodd;clip-rule:evenodd;fill:#FFEE88;" width="30.001" height="59.999"/>
		<path style="fill-rule:evenodd;clip-rule:evenodd;fill:#FFEE88;" d="M53.032,74.246c-5.834,5.833-5.834,15.379,0,21.213&#10;&#9;&#9;&#9;l31.82,31.82c5.833,5.833,15.379,5.833,21.213,0l21.214-21.214c5.834-5.833,5.834-15.379,0-21.213l-31.82-31.82&#10;&#9;&#9;&#9;c-5.834-5.833-15.379-5.833-21.213,0L53.032,74.246z"/>
		<path style="fill-rule:evenodd;clip-rule:evenodd;fill:#FFEE88;" d="M127.279,106.065l-21.213,21.213l62.747,62.747&#10;&#9;&#9;&#9;c-5.794-5.863-5.773-15.312,0.064-21.149c5.857-5.858,15.355-5.857,21.213,0c5.858,5.858,5.858,15.355,0,21.213&#10;&#9;&#9;&#9;c-5.858,5.858-15.355,5.858-21.213,0l42.426,42.426c-5.858-5.858-5.858-15.355,0-21.213c5.858-5.858,15.356-5.857,21.214,0&#10;&#9;&#9;&#9;l-42.426-42.426L127.279,106.065L127.279,106.065z M471.163,460.556c-8.787,8.787-23.033,8.787-31.82,0.001l40.749,40.749&#10;&#9;&#9;&#9;l21.214-21.213l-25.745-25.745C474.489,456.593,473.023,458.697,471.163,460.556L471.163,460.556z M418.131,407.524&#10;&#9;&#9;&#9;c1.86-1.86,3.326-3.963,4.398-6.209l23.024,23.024c-2.246,1.072-4.351,2.537-6.21,4.397c-8.787,8.787-8.787,23.033,0,31.82&#10;&#9;&#9;&#9;l-53.033-53.032l-47.73-47.729c5.858,5.858,15.356,5.858,21.213-0.001c5.858-5.857,5.858-15.355,0-21.213&#10;&#9;&#9;&#9;c-5.858-5.858-15.355-5.858-21.213,0c-5.858,5.858-5.858,15.355,0,21.213l-42.426-42.426l-42.426-42.426l-42.375-42.374&#10;&#9;&#9;&#9;c5.862,5.806,15.321,5.789,21.162-0.052c5.857-5.858,5.857-15.355,0-21.213l42.426,42.426l42.427,42.426&#10;&#9;&#9;&#9;c-5.858-5.857-15.356-5.858-21.214,0c-5.858,5.858-5.858,15.355,0,21.213c5.858,5.858,15.355,5.858,21.213,0&#10;&#9;&#9;&#9;c5.846-5.846,5.858-15.316,0.036-21.177l42.39,42.39l32.726,32.726c-2.246,1.071-4.35,2.537-6.21,4.397&#10;&#9;&#9;&#9;c-8.787,8.786-8.787,23.033,0,31.82C395.098,416.311,409.344,416.311,418.131,407.524L418.131,407.524z M274.942,253.729&#10;&#9;&#9;&#9;c-5.858-5.858-15.355-5.858-21.213,0c-5.858,5.858-5.858,15.355,0,21.213c5.858,5.858,15.355,5.858,21.213,0&#10;&#9;&#9;&#9;C280.8,269.084,280.8,259.586,274.942,253.729z"/>
		<path style="fill-rule:evenodd;clip-rule:evenodd;fill:#FFE000;" d="M168.877,168.876c-5.839,5.839-5.868,15.381,0,21.213&#10;&#9;&#9;&#9;c5.832,5.869,15.374,5.839,21.213,0c5.857-5.858,5.857-15.355,0-21.213C184.232,163.019,174.734,163.019,168.877,168.876&#10;&#9;&#9;&#9;L168.877,168.876z M359.795,338.581c-5.858-5.858-15.355-5.858-21.213,0c-5.858,5.858-5.858,15.355,0,21.213&#10;&#9;&#9;&#9;c5.858,5.858,15.355,5.858,21.213,0C365.652,353.936,365.653,344.439,359.795,338.581L359.795,338.581z M317.332,296.118&#10;&#9;&#9;&#9;c-5.861-5.821-15.332-5.809-21.177,0.036c-5.858,5.858-5.858,15.355,0,21.213c5.858,5.858,15.355,5.858,21.213,0&#10;&#9;&#9;&#9;c5.858-5.858,5.858-15.355,0-21.213L317.332,296.118L317.332,296.118z M274.942,253.729c-5.858-5.858-15.355-5.858-21.213,0&#10;&#9;&#9;&#9;c-5.858,5.858-5.858,15.355,0,21.213c5.858,5.858,15.355,5.858,21.213,0C280.8,269.084,280.8,259.586,274.942,253.729&#10;&#9;&#9;&#9;L274.942,253.729z M232.516,211.302c-5.858-5.857-15.356-5.858-21.213,0c-5.857,5.858-5.857,15.356,0,21.213&#10;&#9;&#9;&#9;c5.858,5.858,15.355,5.858,21.213,0C238.374,226.658,238.374,217.16,232.516,211.302z"/>
		<path style="fill-rule:evenodd;clip-rule:evenodd;fill:#FFE000;" d="M386.311,375.704c-8.787,8.786-8.787,23.033,0,31.82&#10;&#9;&#9;&#9;c8.787,8.787,23.033,8.787,31.82,0c8.726-8.726,8.829-22.991,0-31.82C409.302,366.875,395.037,366.978,386.311,375.704&#10;&#9;&#9;&#9;L386.311,375.704z M439.343,428.736c-8.787,8.787-8.787,23.033,0,31.82c8.787,8.787,23.033,8.787,31.82,0&#10;&#9;&#9;&#9;c8.726-8.726,8.828-22.991,0-31.82C462.335,419.907,448.069,420.011,439.343,428.736z"/>
		<path style="fill-rule:evenodd;clip-rule:evenodd;fill:#FFE000;" d="M53.032,74.246c-5.834,5.833-5.834,15.379,0,21.213&#10;&#9;&#9;&#9;l31.82,31.82c5.834,5.834,15.379,5.834,21.213,0l15.898-15.898c-5.835,5.821-15.371,5.818-21.201-0.012l-31.82-31.82&#10;&#9;&#9;&#9;c-5.834-5.833-5.834-15.379,0-21.213L53.032,74.246z"/>
	</g>
	<g>
		<path style="fill-rule:evenodd;clip-rule:evenodd;fill:none;stroke:#000000;stroke-width:15;stroke-miterlimit:22.9256;" d="&#10;&#9;&#9;&#9;M53.033,74.245L10.607,31.819l21.214-21.213l42.425,42.425 M127.279,106.065l265.242,265.242 M422.528,401.314l23.026,23.026&#10;&#9;&#9;&#9; M475.56,454.346l25.746,25.746l-21.214,21.213L106.066,127.278"/>
		<path style="fill-rule:evenodd;clip-rule:evenodd;fill:none;stroke:#000000;stroke-width:15;stroke-miterlimit:22.9256;" d="&#10;&#9;&#9;&#9;M63.639,106.066L53.032,95.459c-5.834-5.833-5.834-15.379,0-21.213l21.214-21.214c5.834-5.833,15.379-5.833,21.213,0l31.82,31.82&#10;&#9;&#9;&#9;c5.834,5.834,5.834,15.379,0,21.213l-21.214,21.214c-5.833,5.833-15.379,5.833-21.213,0l-10.607-10.607"/>
		
			<circle style="fill-rule:evenodd;clip-rule:evenodd;fill:none;stroke:#000000;stroke-width:15;stroke-miterlimit:22.9256;" cx="264.335" cy="264.335" r="15"/>
		<path style="fill-rule:evenodd;clip-rule:evenodd;fill:none;stroke:#000000;stroke-width:15;stroke-miterlimit:22.9256;" d="&#10;&#9;&#9;&#9;M211.302,211.302c5.858-5.858,15.356-5.858,21.213,0c5.858,5.858,5.858,15.355,0,21.213c-5.858,5.858-15.356,5.858-21.213,0&#10;&#9;&#9;&#9;C205.445,226.658,205.445,217.16,211.302,211.302z"/>
		
			<circle style="fill-rule:evenodd;clip-rule:evenodd;fill:none;stroke:#000000;stroke-width:15;stroke-miterlimit:22.9256;" cx="349.188" cy="349.188" r="15"/>
		
			<circle style="fill-rule:evenodd;clip-rule:evenodd;fill:none;stroke:#000000;stroke-width:15;stroke-miterlimit:22.9256;" cx="306.762" cy="306.762" r="15"/>
		
			<circle style="fill-rule:evenodd;clip-rule:evenodd;fill:none;stroke:#000000;stroke-width:15;stroke-miterlimit:22.9256;" cx="179.483" cy="179.483" r="15"/>
		<path style="fill-rule:evenodd;clip-rule:evenodd;fill:none;stroke:#000000;stroke-width:15;stroke-miterlimit:22.9256;" d="&#10;&#9;&#9;&#9;M195.393,131.754L355.539,291.9 M366.146,302.507l30.771,30.771"/>
		<path style="fill-rule:evenodd;clip-rule:evenodd;fill:none;stroke:#000000;stroke-width:15;stroke-miterlimit:22.9256;" d="&#10;&#9;&#9;&#9;M386.311,375.704c8.787-8.787,23.033-8.787,31.82,0c8.787,8.786,8.787,23.033,0,31.82c-8.787,8.787-23.033,8.787-31.82,0&#10;&#9;&#9;&#9;C377.524,398.737,377.524,384.491,386.311,375.704z"/>
		<path style="fill-rule:evenodd;clip-rule:evenodd;fill:none;stroke:#000000;stroke-width:15;stroke-miterlimit:22.9256;" d="&#10;&#9;&#9;&#9;M439.343,428.736c8.787-8.787,23.033-8.787,31.82,0c8.787,8.787,8.787,23.033,0,31.82c-8.787,8.787-23.033,8.787-31.82,0&#10;&#9;&#9;&#9;C430.556,451.77,430.556,437.523,439.343,428.736z"/>
		
			<line style="fill-rule:evenodd;clip-rule:evenodd;fill:none;stroke:#000000;stroke-width:15;stroke-miterlimit:22.9256;" x1="190.09" y1="168.876" x2="211.303" y2="147.664"/>
		
			<line style="fill-rule:evenodd;clip-rule:evenodd;fill:none;stroke:#000000;stroke-width:15;stroke-miterlimit:22.9256;" x1="232.516" y1="211.302" x2="253.729" y2="190.09"/>
		
			<line style="fill-rule:evenodd;clip-rule:evenodd;fill:none;stroke:#000000;stroke-width:15;stroke-miterlimit:22.9256;" x1="274.942" y1="253.729" x2="296.155" y2="232.516"/>
		
			<line style="fill-rule:evenodd;clip-rule:evenodd;fill:none;stroke:#000000;stroke-width:15;stroke-miterlimit:22.9256;" x1="317.368" y1="296.155" x2="338.581" y2="274.942"/>
		
			<line style="fill-rule:evenodd;clip-rule:evenodd;fill:none;stroke:#000000;stroke-width:15;stroke-miterlimit:22.9256;" x1="359.795" y1="338.581" x2="381.007" y2="317.368"/>
		
			<line style="fill-rule:evenodd;clip-rule:evenodd;fill:none;stroke:#000000;stroke-width:15;stroke-miterlimit:22.9256;" x1="95.459" y1="84.852" x2="84.853" y2="95.459"/>
	</g>
</g>
<g>
</g>
<g>
</g>
<g>
</g>
<g>
</g>
<g>
</g>
<g>
</g>
<g>
</g>
<g>
</g>
<g>
</g>
<g>
</g>
<g>
</g>
<g>
</g>
<g>
</g>
<g>
</g>
<g>
</g>
</svg>