<svg id="color" enable-background="new 0 0 256 256" height="512" viewBox="0 0 256 256" width="512" xmlns="http://www.w3.org/2000/svg"><g><g><path d="m149.6126 39.7128h-43.5191c-2.551 0-4.7672 1.7541-5.353 4.2369l-39.6667 168.1065c-1.6297 6.9065 3.6098 13.5262 10.706 13.5262h112.1467c7.0962 0 12.3357-6.6197 10.706-13.5262l-39.6669-168.1065c-.5858-2.4828-2.802-4.2369-5.353-4.2369z" fill="#fff"/><path d="m17.7478 99.5955 4.617 2.9885c16.3282-25.2226 40.5673-43.3236 68.3116-51.9063l1.4549-6.166c-30.2444 8.5438-56.7403 27.8296-74.3835 55.0838z" fill="#ffe678"/></g><g><path d="m108.3987 46.9124h38.9087l31.3797 126.1113h-101.668z" fill="#3a3a3a"/></g><g fill="#ffe678"><path d="m183.4057 58.0098 2.7561-4.7738c-7.2216-3.5906-14.778-6.5185-22.5873-8.7245l1.4549 6.166c6.326 1.957 12.467 4.4142 18.3763 7.3323z"/><path d="m200.4433 61.4995-2.7588 4.7784c13.9828 9.3803 26.1599 21.6356 35.6569 36.306l4.617-2.9885c-9.9799-15.4163-22.7939-28.2806-37.5151-38.0959z"/></g><g><path d="m127.8531 21.4444-24.5047 18.9145h49.0094z" fill="#5b5b5b"/></g><g><g><path d="m91.692 236.8684h-9.6499c-3.0376 0-5.5-2.4624-5.5-5.5v-14.696h20.6499v14.696c0 3.0376-2.4624 5.5-5.5 5.5z" fill="#3a3a3a"/></g><g><path d="m173.664 236.8684h-9.6499c-3.0376 0-5.5-2.4624-5.5-5.5v-14.696h20.6499v14.696c0 3.0376-2.4624 5.5-5.5 5.5z" fill="#3a3a3a"/></g></g><g><g><path d="m135.7314 185.6304h-15.7565v-112.1317c0-4.351 3.5272-7.8783 7.8783-7.8783 4.351 0 7.8783 3.5272 7.8783 7.8783v112.1317z" fill="#818181"/></g></g><g><g><path d="m119.787 82.45h16.132v5.5h-16.132z" fill="#5b5b5b"/></g><g><path d="m119.787 102.969h16.132v5.5h-16.132z" fill="#5b5b5b"/></g><g><path d="m119.787 123.486h16.132v5.5h-16.132z" fill="#5b5b5b"/></g><g><path d="m119.787 144.004h16.132v5.5h-16.132z" fill="#5b5b5b"/></g></g><g><path d="m95.589 110.497h130.903v5.5h-130.903z" fill="#5b5b5b" transform="matrix(.5 -.866 .866 .5 -17.555 196.088)"/></g><g><path d="m149.6126 39.7128h-43.5191c-2.551 0-4.7672 1.7541-5.353 4.2369l-39.6667 168.1065c-1.6297 6.9065 3.6098 13.5262 10.706 13.5262h112.1467c7.0962 0 12.3357-6.6197 10.706-13.5262l-39.6669-168.1065c-.5858-2.4828-2.802-4.2369-5.353-4.2369zm-39.0556 11.1392h34.5921l27.8983 118.2321h-90.3887z" fill="#ef7600"/></g><g><circle cx="165.696" cy="105.183" fill="#818181" r="12.672"/></g></g></svg>