<?xml version="1.0" encoding="iso-8859-1"?>
<!-- Generator: Adobe Illustrator 19.0.0, SVG Export Plug-In . SVG Version: 6.00 Build 0)  -->
<svg version="1.1" id="Capa_1" xmlns="http://www.w3.org/2000/svg" xmlns:xlink="http://www.w3.org/1999/xlink" x="0px" y="0px"
	 viewBox="0 0 511.998 511.998" style="enable-background:new 0 0 511.998 511.998;" xml:space="preserve">
<path style="fill:#FFC477;" d="M250.536,308.747l-18.437,119.89c-1.37,8.91-9.036,15.487-18.051,15.487h-52.493
	c-9.333,0-17.164-7.036-18.159-16.315l-11.868-110.653c-1.493-13.926-8.164-26.783-18.69-36.023L21.318,200.79
	c-8.894-11.552-13.717-25.723-13.717-40.303l0,0c0-32.535,23.688-60.227,55.83-65.268l139.292-21.845
	c52.271-8.197,105.569-7.26,157.52,2.769L471.857,97.69c18.895,3.647,32.545,20.185,32.545,39.428l0,0
	c0,15.892-9.371,30.288-23.903,36.72l-191.617,84.814C268.394,267.722,253.941,286.604,250.536,308.747z"/>
<path style="fill:#FFB655;" d="M504.405,137.121c0,7.943-2.34,15.511-6.504,21.903s-10.141,11.6-17.405,14.812l-191.619,84.818
	c-20.485,9.067-34.932,27.952-38.336,50.088l-12.988,84.422l-5.451,35.469c-1.378,8.915-9.037,15.49-18.054,15.49h-20.748
	c3.992-3.242,6.798-7.912,7.629-13.312l5.785-37.647l8.855-57.585l6.92-45.002c3.982-25.895,20.89-47.981,44.85-58.588
	l224.13-99.204c4.144-1.834,7.923-4.225,11.276-7.061C503.828,129.351,504.405,133.18,504.405,137.121z"/>
<polygon style="fill:#F44545;" points="246.408,335.577 237.553,393.169 139.685,393.169 133.507,335.577 "/>
<g>
	<circle style="fill:#DD7D00;" cx="57.62" cy="149.98" r="14.862"/>
	<circle style="fill:#DD7D00;" cx="118.645" cy="133" r="14.862"/>
	<circle style="fill:#DD7D00;" cx="179.969" cy="120.417" r="14.862"/>
	<circle style="fill:#DD7D00;" cx="242.691" cy="109.638" r="14.862"/>
	<circle style="fill:#DD7D00;" cx="267.937" cy="216.946" r="14.862"/>
	<circle style="fill:#DD7D00;" cx="324.884" cy="194.82" r="14.862"/>
	<circle style="fill:#DD7D00;" cx="381.841" cy="172.684" r="14.862"/>
	<circle style="fill:#DD7D00;" cx="438.788" cy="150.557" r="14.862"/>
</g>
<g>
	<path style="fill:#CC7400;" d="M72.486,149.978c0,8.216-6.656,14.862-14.862,14.862c-6.281,0-11.651-3.89-13.829-9.392
		c1.692,0.669,3.536,1.033,5.471,1.033c8.206,0,14.862-6.646,14.862-14.862c0-1.925-0.365-3.769-1.043-5.461
		C68.596,138.327,72.486,143.697,72.486,149.978z"/>
	<path style="fill:#CC7400;" d="M133.506,132.998c0,8.206-6.656,14.862-14.862,14.862c-6.281,0-11.651-3.89-13.819-9.402
		c1.692,0.679,3.536,1.044,5.461,1.044c8.206,0,14.862-6.656,14.862-14.862c0-1.925-0.365-3.769-1.044-5.461
		C129.615,121.347,133.506,126.717,133.506,132.998z"/>
	<path style="fill:#CC7400;" d="M194.829,120.415c0,8.216-6.646,14.862-14.862,14.862c-6.281,0-11.651-3.89-13.829-9.402
		c1.692,0.679,3.536,1.044,5.471,1.044c8.216,0,14.862-6.646,14.862-14.862c0-1.925-0.365-3.769-1.044-5.461
		C190.939,108.765,194.829,114.134,194.829,120.415z"/>
	<path style="fill:#CC7400;" d="M257.551,109.646c0,8.206-6.656,14.862-14.862,14.862c-6.281,0-11.651-3.89-13.819-9.402
		c1.692,0.679,3.536,1.043,5.461,1.043c8.206,0,14.862-6.656,14.862-14.862c0-1.935-0.365-3.769-1.033-5.461
		C253.66,98.005,257.551,103.365,257.551,109.646z"/>
	<path style="fill:#CC7400;" d="M282.797,216.944c0,8.206-6.656,14.862-14.862,14.862c-6.281,0-11.651-3.89-13.819-9.402
		c1.692,0.679,3.536,1.044,5.461,1.044c8.206,0,14.862-6.656,14.862-14.862c0-1.925-0.365-3.769-1.043-5.461
		C278.907,205.294,282.797,210.663,282.797,216.944z"/>
	<path style="fill:#CC7400;" d="M339.744,194.818c0,8.206-6.656,14.862-14.862,14.862c-6.281,0-11.651-3.89-13.819-9.402
		c1.692,0.679,3.536,1.044,5.461,1.044c8.206,0,14.862-6.656,14.862-14.862c0-1.925-0.365-3.769-1.044-5.461
		C335.854,183.167,339.744,188.537,339.744,194.818z"/>
	<path style="fill:#CC7400;" d="M396.701,172.692c0,8.206-6.656,14.862-14.862,14.862c-6.281,0-11.651-3.89-13.819-9.402
		c1.692,0.679,3.536,1.044,5.461,1.044c8.206,0,14.862-6.656,14.862-14.862c0-1.925-0.365-3.769-1.043-5.461
		C392.811,161.041,396.701,166.41,396.701,172.692z"/>
	<path style="fill:#CC7400;" d="M453.648,150.565c0,8.206-6.646,14.862-14.862,14.862c-6.281,0-11.651-3.89-13.819-9.402
		c1.692,0.679,3.536,1.044,5.461,1.044c8.216,0,14.862-6.656,14.862-14.862c0-1.935-0.365-3.779-1.043-5.471
		C449.758,138.905,453.648,144.274,453.648,150.565z"/>
</g>
<polygon style="fill:#D63030;" points="246.407,335.579 237.552,393.165 206.713,393.165 215.568,335.579 "/>
<path d="M37.421,204.815l-10.517-9.231c-26.022-34.685-6.576-85.915,37.703-92.859l139.293-21.844
	c86.863-13.622,156.413,3.293,159.749,3.658c4.123,0.797,8.106-1.9,8.901-6.02c0.795-4.119-1.9-8.105-6.02-8.901
	c-5.013-0.545-73.992-18.023-164.985-3.75L62.253,87.712c-55.264,8.665-80.93,73.586-46.956,117.712
	c0.798,1.038,0.531,0.595,12.1,10.812c3.153,2.768,7.955,2.456,10.723-0.698C40.888,212.385,40.576,207.584,37.421,204.815z"/>
<path d="M473.297,90.231l-76.924-14.85c-4.129-0.795-8.106,1.902-8.901,6.02c-0.795,4.12,1.901,8.106,6.02,8.901l76.924,14.85
	c31.179,6.019,36.105,48.86,7.008,61.74l-191.618,84.814c-22.969,10.167-38.962,31.059-42.781,55.886l-3.135,20.386h-57.034
	c-4.197,0-7.598,3.401-7.598,7.598c0,4.197,3.401,7.598,7.598,7.598h54.695l-6.518,42.396h-84.522l-4.548-42.396h10.499
	c4.197,0,7.598-3.401,7.598-7.598c0-4.197-3.401-7.598-7.598-7.598H140.33c-1.396-5.594,1.12-31.836-22.479-52.556l-57.589-50.555
	c-3.155-2.768-7.954-2.457-10.724,0.697c-2.768,3.154-2.456,7.955,0.697,10.724l57.589,50.554
	c9.119,8.006,14.854,19.06,16.148,31.125l11.868,110.653c1.413,13.171,12.467,23.104,25.714,23.104h52.492
	c12.856,0,23.606-9.223,25.561-21.931l18.437-119.89c3.026-19.68,15.703-36.24,33.91-44.299l191.618-84.814
	c17.268-7.643,28.427-24.784,28.427-43.669C512,114.28,495.723,94.56,473.297,90.231z M224.588,427.483
	c-0.805,5.24-5.239,9.044-10.54,9.044h-52.492c-5.463,0-10.022-4.096-10.604-9.527l-2.813-26.232h80.559L224.588,427.483z"/>
<path d="M80.081,149.982c0-12.385-10.075-22.461-22.461-22.461S35.16,137.597,35.16,149.982c0,12.385,10.075,22.461,22.461,22.461
	S80.081,162.367,80.081,149.982z M50.357,149.982c0-4.005,3.259-7.264,7.264-7.264s7.264,3.259,7.264,7.264
	c0,4.005-3.259,7.264-7.264,7.264S50.357,153.987,50.357,149.982z"/>
<path d="M96.184,132.997c0,12.385,10.075,22.461,22.461,22.461s22.461-10.075,22.461-22.461s-10.075-22.461-22.461-22.461
	S96.184,120.612,96.184,132.997z M125.908,132.997c0,4.005-3.259,7.264-7.264,7.264c-4.005,0-7.264-3.259-7.264-7.264
	c0-4.005,3.259-7.264,7.264-7.264C122.649,125.733,125.908,128.991,125.908,132.997z"/>
<path d="M157.51,120.42c0,12.385,10.075,22.461,22.461,22.461s22.462-10.075,22.462-22.461S192.356,97.96,179.971,97.96
	S157.51,108.035,157.51,120.42z M187.236,120.42c0,4.005-3.259,7.264-7.265,7.264c-4.005,0-7.264-3.259-7.264-7.264
	s3.259-7.264,7.264-7.264C183.978,113.156,187.236,116.415,187.236,120.42z"/>
<path d="M265.153,109.642c0-12.385-10.076-22.461-22.462-22.461s-22.461,10.075-22.461,22.461s10.075,22.461,22.461,22.461
	C255.077,132.103,265.153,122.026,265.153,109.642z M242.692,116.906c-4.005,0-7.264-3.259-7.264-7.264
	c0-4.005,3.259-7.264,7.264-7.264c4.006,0,7.265,3.259,7.265,7.264C249.957,113.647,246.697,116.906,242.692,116.906z"/>
<path d="M267.933,239.405c12.385,0,22.462-10.075,22.462-22.461c0-12.385-10.076-22.462-22.462-22.462
	c-12.385,0-22.461,10.076-22.461,22.462C245.473,229.33,255.548,239.405,267.933,239.405z M267.933,209.679
	c4.006,0,7.265,3.259,7.265,7.265c0,4.005-3.259,7.264-7.265,7.264c-4.005,0-7.264-3.259-7.264-7.264
	C260.669,212.939,263.928,209.679,267.933,209.679z"/>
<path d="M302.425,194.816c0,12.385,10.075,22.461,22.461,22.461c12.385,0,22.461-10.075,22.461-22.461s-10.075-22.461-22.461-22.461
	C312.501,172.355,302.425,182.431,302.425,194.816z M332.149,194.816c0,4.005-3.259,7.264-7.264,7.264s-7.264-3.259-7.264-7.264
	s3.259-7.264,7.264-7.264S332.149,190.811,332.149,194.816z"/>
<path d="M359.376,172.688c0,12.385,10.075,22.461,22.461,22.461c12.385,0,22.461-10.075,22.461-22.461s-10.075-22.461-22.461-22.461
	C369.452,150.227,359.376,160.303,359.376,172.688z M381.837,165.424c4.005,0,7.264,3.259,7.264,7.264s-3.259,7.264-7.264,7.264
	s-7.264-3.259-7.264-7.264S377.832,165.424,381.837,165.424z"/>
<path d="M461.251,150.56c0-12.385-10.075-22.462-22.461-22.462s-22.462,10.076-22.462,22.462s10.076,22.461,22.462,22.461
	S461.251,162.946,461.251,150.56z M431.525,150.56c0-4.006,3.259-7.265,7.265-7.265c4.005,0,7.264,3.259,7.264,7.265
	c0,4.005-3.259,7.264-7.264,7.264C434.784,157.824,431.525,154.566,431.525,150.56z"/>
<g>
</g>
<g>
</g>
<g>
</g>
<g>
</g>
<g>
</g>
<g>
</g>
<g>
</g>
<g>
</g>
<g>
</g>
<g>
</g>
<g>
</g>
<g>
</g>
<g>
</g>
<g>
</g>
<g>
</g>
</svg>
