<svg xmlns="http://www.w3.org/2000/svg" viewBox="0 0 996 2048" width="996" height="2048" role="img" aria-labelledby="title desc">
  <title id="title">Recorder icon</title>
  <desc id="desc">Vector SVG recorder icon converted from the provided reference image, with transparent background.</desc>
  <defs>
    <linearGradient id="bodyFill" x1="120" y1="980" x2="830" y2="760" gradientUnits="userSpaceOnUse">
      <stop offset="0" stop-color="#fff8d2"/>
      <stop offset="0.48" stop-color="#fff6c8"/>
      <stop offset="0.62" stop-color="#eee4ad"/>
      <stop offset="0.76" stop-color="#fffce7"/>
      <stop offset="1" stop-color="#fff2bd"/>
    </linearGradient>
    <filter id="shadow" x="-20%" y="-8%" width="150%" height="118%" color-interpolation-filters="sRGB">
      <feGaussianBlur in="SourceAlpha" stdDeviation="15" result="blur"/>
      <feOffset in="blur" dx="32" dy="20" result="offset"/>
      <feColorMatrix in="offset" type="matrix" values="0 0 0 0 0  0 0 0 0 0  0 0 0 0 0  0 0 0 .18 0" result="shadow"/>
      <feMerge><feMergeNode in="shadow"/><feMergeNode in="SourceGraphic"/></feMerge>
    </filter>
  </defs>
  <g filter="url(#shadow)">
    <path d="M896,67 L880,62 L862,62 L843,68 L822,91 L782,162 L751,235 L727,324 L691,415 L654,478 L648,485 L631,492 L625,501 L624,512 L630,526 L629,545 L612,605 L589,639 L574,641 L566,647 L560,656 L559,669 L548,678 L545,688 L552,705 L549,719 L400,1070 L395,1072 L397,1077 L284,1338 L218,1499 L195,1505 L187,1512 L185,1531 L194,1548 L179,1588 L143,1662 L127,1667 L117,1676 L116,1691 L126,1710 L126,1717 L111,1776 L100,1800 L78,1828 L65,1830 L53,1836 L46,1848 L46,1861 L54,1877 L56,1894 L78,1918 L108,1936 L144,1948 L181,1950 L221,1932 L228,1924 L229,1903 L218,1885 L228,1839 L264,1777 L272,1769 L290,1766 L299,1754 L300,1742 L293,1722 L326,1633 L336,1612 L343,1606 L357,1604 L368,1590 L368,1578 L363,1566 L355,1557 L355,1550 L592,974 L683,765 L708,755 L711,747 L710,733 L720,721 L720,706 L711,689 L716,659 L728,632 L748,600 L764,582 L776,578 L784,569 L785,551 L780,541 L780,532 L798,465 L839,373 L871,316 L879,308 L908,199 L913,160 L912,127 L922,105 L922,92 L917,82 Z" fill="url(#bodyFill)"/>
    <path d="M894,69 L879,64 L862,64 L840,74 L830,84 L816,105 L783,166 L750,246 L730,321 L697,407 L676,448 L649,487 L635,492 L627,502 L626,512 L632,525 L631,543 L625,573 L614,605 L602,627 L589,642 L576,644 L564,653 L561,661 L562,670 L554,675 L549,682 L549,695 L555,705 L549,724 L218,1502 L200,1505 L189,1514 L186,1525 L196,1549 L182,1586 L145,1663 L127,1670 L119,1680 L118,1690 L128,1708 L128,1718 L119,1758 L106,1793 L93,1815 L80,1830 L59,1835 L49,1846 L48,1861 L57,1877 L57,1887 L64,1901 L85,1920 L119,1938 L150,1947 L180,1948 L191,1944 L200,1936 L216,1932 L224,1925 L228,1916 L228,1908 L216,1882 L221,1854 L229,1832 L247,1798 L269,1768 L284,1765 L295,1757 L298,1743 L290,1725 L322,1637 L337,1606 L359,1599 L365,1591 L364,1573 L351,1554 L539,1096 L671,784 L682,762 L697,759 L708,749 L708,731 L716,724 L719,715 L717,704 L709,692 L709,680 L716,653 L732,620 L761,580 L775,575 L783,565 L783,552 L777,538 L795,467 L813,422 L839,368 L870,313 L877,306 L907,193 L911,168 L909,132 L920,103 L920,94 L916,85 L908,77 Z
      M629,710 L654,723 L675,741 L677,748 L667,765 L593,937 L343,1543 L339,1546 L326,1536 L298,1521 L266,1509 L233,1503 L232,1500 L561,726 L568,702 L573,699 L591,699 Z
      M809,235 L831,242 L853,257 L866,274 L869,292 L834,352 L805,411 L777,484 L768,524 L763,526 L728,503 L695,491 L668,487 L667,484 L688,451 L710,407 L735,343 L749,297 L753,297 L750,318 L783,330 L812,277 L811,273 L760,262 L759,258 L763,248 L770,241 L781,236 Z
      M212,1537 L223,1535 L242,1537 L275,1547 L314,1568 L333,1588 L333,1592 L326,1601 L310,1635 L280,1714 L250,1694 L219,1679 L192,1670 L159,1664 L197,1581 L208,1550 L209,1540 Z
      M143,1700 L149,1698 L170,1699 L210,1711 L242,1728 L265,1751 L265,1755 L239,1788 L220,1823 L209,1852 L205,1873 L150,1843 L99,1829 L120,1791 L135,1744 Z
      M866,75 L875,75 L892,81 L908,95 L908,101 L897,132 L899,171 L896,188 L876,263 L858,245 L831,229 L800,222 L772,225 L791,177 L829,107 L848,83 Z
      M646,530 L669,530 L702,540 L730,555 L749,574 L720,617 L704,651 L697,678 L651,653 L608,641 L628,602 L638,570 L643,532 Z
      M60,1851 L64,1846 L74,1842 L91,1841 L117,1845 L148,1855 L174,1868 L199,1886 L214,1904 L216,1915 L211,1921 L201,1924 L192,1907 L177,1893 L160,1882 L136,1871 L108,1863 L77,1862 L64,1866 L60,1859 Z
      M69,1880 L78,1874 L93,1873 L120,1878 L139,1885 L160,1896 L176,1908 L187,1921 L189,1929 L179,1936 L152,1935 L151,1932 L158,1926 L157,1921 L142,1907 L119,1897 L98,1896 L92,1901 L93,1907 L89,1908 L71,1890 Z
      M638,507 L648,499 L669,498 L691,502 L714,510 L738,522 L756,535 L770,551 L772,561 L767,566 L760,568 L745,551 L729,540 L683,521 L663,517 L642,518 Z
      M573,661 L580,655 L605,653 L644,663 L664,672 L686,686 L703,703 L707,715 L700,721 L684,706 L649,686 L605,671 L575,669 Z
      M130,1684 L141,1677 L158,1676 L188,1681 L217,1691 L247,1706 L268,1721 L283,1737 L286,1748 L278,1754 L271,1738 L259,1726 L240,1713 L211,1699 L167,1687 L146,1687 L132,1692 Z
      M198,1522 L201,1518 L211,1514 L234,1514 L284,1528 L311,1541 L336,1558 L351,1574 L354,1586 L351,1590 L346,1591 L340,1576 L327,1563 L304,1548 L276,1535 L233,1524 L216,1524 L200,1530 Z
      M225,1594 L210,1596 L200,1609 L200,1627 L210,1636 L224,1634 L234,1623 L235,1604 Z
      M304,1412 L289,1412 L278,1423 L276,1441 L286,1453 L297,1453 L303,1450 L312,1437 L312,1422 Z
      M560,687 L563,683 L572,680 L589,680 L634,692 L659,704 L680,718 L695,734 L697,744 L690,748 L687,738 L674,723 L637,701 L600,689 L574,687 L561,691 Z
      M478,958 L469,965 L467,976 L473,986 L485,989 L495,983 L498,970 L491,960 Z
      M576,727 L565,736 L564,746 L571,756 L582,758 L592,752 L595,739 L586,728 Z
      M333,1304 L323,1312 L322,1324 L331,1334 L343,1334 L351,1327 L352,1314 L344,1305 Z
      M428,1074 L419,1084 L420,1096 L428,1103 L441,1103 L449,1094 L448,1081 L440,1074 Z
      M526,843 L518,849 L516,863 L524,872 L536,873 L544,867 L546,853 L540,845 Z
      M381,1189 L372,1196 L370,1207 L377,1217 L390,1219 L399,1212 L401,1201 L393,1190 Z
      M768,291 L785,298 L777,315 L763,310 Z
      M261,1596 L255,1596 L249,1601 L248,1612 L253,1617 L260,1616 L265,1610 L266,1603 Z
      M337,1413 L330,1414 L325,1420 L325,1429 L330,1434 L337,1433 L342,1427 L342,1417 Z
      M777,279 L793,281 L794,285 L787,286 L778,282 Z" fill="#743600" fill-rule="evenodd"/>
  </g>
</svg>
