<svg id="Capa_1" enable-background="new 0 0 512 512" height="512" viewBox="0 0 512 512" width="512" xmlns="http://www.w3.org/2000/svg"><g><g><g><path d="m481.191 90.613c-1.947 0-3.896-.743-5.383-2.229l-11.598-11.598c-2.972-2.973-2.972-7.792 0-10.765 2.973-2.971 7.792-2.971 10.765 0l11.599 11.599c2.972 2.973 2.972 7.792 0 10.765-1.487 1.485-3.435 2.228-5.383 2.228z" fill="#4980ac"/></g><g><path d="m504.388 67.416c-1.947 0-3.896-.743-5.383-2.229l-11.599-11.599c-2.972-2.973-2.972-7.792 0-10.765 2.973-2.971 7.792-2.971 10.765 0l11.599 11.599c2.972 2.973 2.972 7.792 0 10.765-1.486 1.486-3.434 2.229-5.382 2.229z" fill="#4980ac"/></g></g><g><g><path d="m440.596 50.019c-1.947 0-3.896-.743-5.383-2.229l-11.599-11.599c-2.972-2.973-2.972-7.792 0-10.765 2.973-2.971 7.792-2.971 10.765 0l11.599 11.599c2.972 2.973 2.972 7.792 0 10.765-1.486 1.485-3.434 2.229-5.382 2.229z" fill="#4980ac"/></g><g><path d="m463.794 26.821c-1.947 0-3.896-.743-5.383-2.229l-11.599-11.599c-2.972-2.973-2.972-7.792 0-10.765 2.973-2.971 7.792-2.971 10.765 0l11.599 11.599c2.972 2.973 2.972 7.792 0 10.765-1.486 1.486-3.435 2.229-5.382 2.229z" fill="#4980ac"/></g></g><g><path d="m254.559 373.427c17.2-17.2 40.385-23.74 59.516-18.721 3.438.902 7.056-.598 8.91-3.63l7.6-12.426c24.716-40.409 18.529-92.489-14.965-125.983l-16.288-16.288c-33.494-33.494-85.574-39.681-125.983-14.965l-12.426 7.6c-3.032 1.855-4.532 5.472-3.63 8.91 5.019 19.131-1.521 42.316-18.721 59.516-22.02 22.02-53.853 26.582-74.425 11.77-3.271-2.355-7.736-2.101-10.586.749l-20.533 20.533c-44.039 44.039-44.039 115.441 0 159.48l28.996 28.996c44.039 44.039 115.441 44.039 159.48 0l20.533-20.533c2.85-2.85 3.104-7.315.749-10.586-14.809-20.569-10.247-52.403 11.773-74.422z" fill="#c27e4e"/></g><g><g><path d="m158.26 384.549c-1.947 0-3.896-.743-5.383-2.229-2.972-2.973-2.972-7.792 0-10.765l85.977-85.977c2.973-2.971 7.792-2.971 10.765 0 2.972 2.973 2.972 7.792 0 10.765l-85.977 85.977c-1.486 1.485-3.435 2.229-5.382 2.229z" fill="#e6f7fe"/></g><g><path d="m135.062 361.352c-1.947 0-3.896-.743-5.383-2.229-2.972-2.973-2.972-7.792 0-10.765l85.977-85.977c2.973-2.971 7.792-2.971 10.765 0 2.972 2.973 2.972 7.792 0 10.765l-85.977 85.977c-1.486 1.485-3.434 2.229-5.382 2.229z" fill="#e6f7fe"/></g></g><g><path d="m315.621 212.666-1.657-1.657c-9.913 49.254-40.939 105.131-89.382 153.574-58.806 58.806-128.569 91.951-184.137 92.807l21.581 21.581c44.039 44.039 115.441 44.039 159.481 0l20.533-20.533c2.85-2.85 3.104-7.315.749-10.586-14.811-20.572-10.249-52.405 11.77-74.425 17.2-17.2 40.385-23.74 59.516-18.721 3.438.902 7.056-.598 8.91-3.63l7.601-12.426c24.716-40.41 18.529-92.49-14.965-125.984z" fill="#b36d3c"/></g><g><g><path d="m453.642 78.65-20.293-20.293c-2.403-2.403-2.402-6.3.002-8.701l37.716-37.675c2.403-2.4 6.295-2.399 8.697.002l20.252 20.252c2.401 2.401 2.402 6.294.002 8.697l-37.675 37.716c-2.401 2.404-6.298 2.405-8.701.002z" fill="#c27e4e"/></g><g><path d="m467.793 50.388c-11.023 0-21.209-2.11-29.489-5.678l-4.952 4.947c-2.404 2.402-2.405 6.298-.002 8.701l20.293 20.293c2.403 2.403 6.299 2.402 8.701-.002l33.173-33.209c-7.945 3.124-17.473 4.948-27.724 4.948z" fill="#b36d3c"/></g><g><path d="m431.897 103.3-23.197-23.197 23.217-23.178 23.157 23.158z" fill="#804e2b"/></g><g><path d="m402.936 79.814-198.323 180.811c-2.567 2.34-2.659 6.35-.203 8.806l38.159 38.159c2.456 2.456 6.465 2.363 8.805-.203l180.811-198.323c1.461-1.603 1.404-4.072-.129-5.605l-23.515-23.515c-1.533-1.534-4.002-1.591-5.605-.13z" fill="#4980ac"/></g><g><path d="m422.56 93.962-187.719 205.9 7.728 7.728c2.456 2.456 6.465 2.363 8.805-.203l180.811-198.323c1.461-1.603 1.404-4.072-.129-5.605z" fill="#407194"/></g></g><g><path d="m91.378 444.6 38.985-19.547c3.713-1.862 4.513-6.812 1.576-9.749l-35.244-35.244c-2.937-2.937-7.887-2.136-9.749 1.576l-19.546 38.986c-3.45 6.881-2.105 15.198 3.338 20.641 5.442 5.442 13.759 6.787 20.64 3.337z" fill="#4980ac"/></g><g><path d="m178.764 477.521c-2.685 0-5.286-1.422-6.674-3.94-2.028-3.682-.688-8.311 2.994-10.34 12.746-7.022 20.204-21.078 19.001-35.81-.44-5.371-.412-10.852.083-16.294.381-4.185 4.079-7.284 8.27-6.89 4.186.381 7.272 4.082 6.89 8.27-.415 4.572-.439 9.172-.071 13.673 1.692 20.698-8.838 40.475-26.827 50.385-1.164.642-2.424.946-3.666.946z" fill="#804e2b"/></g><g><path d="m42.084 340.855c-1.242 0-2.501-.304-3.666-.945-3.682-2.029-5.022-6.658-2.994-10.34 9.911-17.989 29.683-28.521 50.385-26.827 4.502.368 9.104.344 13.674-.071 4.193-.388 7.89 2.705 8.27 6.89.382 4.187-2.704 7.889-6.89 8.27-5.443.496-10.924.523-16.295.083-14.709-1.197-28.787 6.255-35.809 19.001-1.388 2.517-3.991 3.939-6.675 3.939z" fill="#804e2b"/></g><g><path d="m169.987 396.801c-1.947 0-3.896-.743-5.383-2.229l-47.177-47.177c-2.972-2.973-2.972-7.792 0-10.765 2.973-2.971 7.792-2.971 10.765 0l47.177 47.177c2.972 2.973 2.972 7.792 0 10.765-1.486 1.486-3.434 2.229-5.382 2.229z" fill="#4980ac"/></g><path d="m308.422-36.267h15.224v400.03h-15.224z" fill="#e6f7fe" transform="matrix(.707 -.707 .707 .707 -23.223 271.431)"/><g><path d="m491.429 328.377 17.815-17.815c2.972-2.973 2.972-7.792 0-10.765l-23.198-23.197-10.765 10.765 17.816 17.815-12.433 12.432-17.815-17.815-10.765 10.765 46.394 46.394c1.487 1.486 3.435 2.229 5.383 2.229s3.896-.743 5.383-2.229c2.972-2.973 2.972-7.792 0-10.765z" fill="#ecc52e"/><g><path d="m457.467 312.792c-1.947 0-3.896-.743-5.383-2.229-2.972-2.973-2.972-7.792 0-10.765l17.816-17.815-262.985-262.984c-5.024-5.026-13.205-5.028-18.231 0l-8.699 8.699c-1.427 1.428-3.364 2.23-5.383 2.23s-3.954-.802-5.383-2.229l-11.598-11.599c-2.972-2.973-2.972-7.792 0-10.765 2.973-2.971 7.792-2.971 10.765 0l6.216 6.217 3.316-3.317c10.963-10.961 28.798-10.962 39.761-.001l268.367 268.366c2.972 2.973 2.972 7.792 0 10.765l-23.197 23.197c-1.486 1.486-3.435 2.23-5.382 2.23z" fill="#ffe07d"/></g></g></g></svg>